<svg id="Layer_2" data-name="Layer 2" xmlns="http://www.w3.org/2000/svg" viewBox="0 0 661.37 157.93"><defs><style>.cls-1{fill:#336477;}</style></defs><title>numago-logo-final</title><g id="umago"><path d="M202.18,123.6a22.3,22.3,0,0,1-15.62-5.76,20.26,20.26,0,0,1-6.63-14.91V51.34H202V94.73a13.57,13.57,0,0,0,2.37,7.33c1.37,1.84,3.68,2.77,6.94,2.77a11.94,11.94,0,0,0,8.44-3.32,21.81,21.81,0,0,0,5.53-9.07,40.19,40.19,0,0,0,2-13V51.34h22.09v69h-20l-1.73-12.63.31,1.42a30.06,30.06,0,0,1-6,7.58,25.76,25.76,0,0,1-8.6,5.13A32.56,32.56,0,0,1,202.18,123.6Z"/><path d="M287.38,51.34l1.74,12.15-.31-1a31.19,31.19,0,0,1,10.25-10.81,27.39,27.39,0,0,1,14.83-3.87,29.27,29.27,0,0,1,10,1.58,19.43,19.43,0,0,1,7.34,4.66,16.37,16.37,0,0,1,4.1,8l-.79.15a36.49,36.49,0,0,1,10.65-10.41,24,24,0,0,1,13-4q10.26,0,16.33,5.76a20.14,20.14,0,0,1,6.23,14.91v51.76H358.86V77.68a21,21,0,0,0-1.42-7.49q-1.26-2.91-5.84-3.23a12.33,12.33,0,0,0-9.07,3.71A22.68,22.68,0,0,0,337,80.13,39.4,39.4,0,0,0,335.19,92v28.25H313.1V77.68a17.85,17.85,0,0,0-1.65-7.49Q310,67.28,305.37,67a11.67,11.67,0,0,0-8.76,3.71,23.87,23.87,0,0,0-5.36,9.38,38.15,38.15,0,0,0-1.81,11.68v28.56H267.35V51.34Z"/><path d="M427.81,122.18a38.88,38.88,0,0,1-17.44-3.86A28.77,28.77,0,0,1,398,106.4q-4.58-8-4.58-20.51,0-11.67,4.74-20.19a34.51,34.51,0,0,1,12.46-13.18A31.32,31.32,0,0,1,427,47.86q10.26,0,15.54,3.4a39.1,39.1,0,0,1,8.76,7.49l-.95,2.68,2.05-10.09h20.52v69H450.85v-15l1.73,4.73c-.21,0-.84.61-1.89,1.82a36.65,36.65,0,0,1-4.66,4.26,30.3,30.3,0,0,1-7.57,4.26A28.4,28.4,0,0,1,427.81,122.18Zm6.31-18a20.1,20.1,0,0,0,7.1-1.18,15.86,15.86,0,0,0,5.52-3.47,21,21,0,0,0,4.11-5.76V76.9A15.65,15.65,0,0,0,447.06,71a17.78,17.78,0,0,0-6-3.79,21.36,21.36,0,0,0-7.73-1.34,16.6,16.6,0,0,0-8.76,2.45A17.78,17.78,0,0,0,418.18,75a21.15,21.15,0,0,0,.16,19.72,18.87,18.87,0,0,0,6.71,6.94A17.23,17.23,0,0,0,434.12,104.19Z"/><path d="M526.58,155a48.51,48.51,0,0,1-15.7-2.21,42.42,42.42,0,0,1-10.81-5.36q-4.41-3.17-7.89-6l12.94-15.15a61.83,61.83,0,0,0,8.44,6.39q4.82,3.08,12.7,3.08a25.69,25.69,0,0,0,9.71-1.82,17.44,17.44,0,0,0,7.26-5.28A13.51,13.51,0,0,0,546,120V104.83l.79,3.94q-2.53,5.37-9.15,9.39t-17.36,4A32.79,32.79,0,0,1,503,117.37a35.72,35.72,0,0,1-12.7-13.1,37.35,37.35,0,0,1-4.73-18.85,36.89,36.89,0,0,1,5.05-19.33A38.26,38.26,0,0,1,503.7,52.76a32.33,32.33,0,0,1,17-4.9,41.85,41.85,0,0,1,15.54,2.61,25.24,25.24,0,0,1,9.87,6.39l-.79,2,2.36-7.57h20.36v69a29.72,29.72,0,0,1-5.68,17.91,39.21,39.21,0,0,1-15.07,12.3A47.4,47.4,0,0,1,526.58,155ZM507.8,84.79a19.72,19.72,0,0,0,2.53,9.94,18.5,18.5,0,0,0,6.86,6.94,19,19,0,0,0,9.71,2.52A25.57,25.57,0,0,0,535,103a19.29,19.29,0,0,0,6.31-3.47A19.63,19.63,0,0,0,546,93.78V76.9A15.5,15.5,0,0,0,541.73,71a21,21,0,0,0-6.55-3.79,24.29,24.29,0,0,0-8.28-1.34,19.43,19.43,0,0,0-9.71,2.45A18.19,18.19,0,0,0,510.33,75,18.82,18.82,0,0,0,507.8,84.79Z"/><path d="M580.7,85a36.41,36.41,0,0,1,5-18.94,35.28,35.28,0,0,1,14-13.18A43.26,43.26,0,0,1,620.3,48q11.84,0,20.51,4.81A33.63,33.63,0,0,1,654.15,66,38.33,38.33,0,0,1,658.8,85a38.76,38.76,0,0,1-4.65,19,33.87,33.87,0,0,1-13.34,13.33q-8.67,4.89-20.82,4.89a45,45,0,0,1-20.28-4.42,33.06,33.06,0,0,1-14-12.78Q580.69,96.63,580.7,85ZM603,85.1a21,21,0,0,0,2.21,9.7,17.67,17.67,0,0,0,6,6.87,15.06,15.06,0,0,0,8.52,2.52,15.84,15.84,0,0,0,9-2.52,16.5,16.5,0,0,0,5.84-6.87,24.16,24.16,0,0,0,0-19.48,16.71,16.71,0,0,0-5.84-6.79,15.84,15.84,0,0,0-9-2.52,15.06,15.06,0,0,0-8.52,2.52,17.94,17.94,0,0,0-6,6.79A20.85,20.85,0,0,0,603,85.1Z"/></g><g id="N"><polygon points="135.78 4.44 135.74 74.13 89.78 32.78 89.78 63.31 158.32 125.02 158.32 4.44 135.78 4.44"/><polygon points="58.28 65.66 58.28 125.02 80.86 125.02 80.86 85.99 58.28 65.66"/><polygon class="cls-1" points="50.75 46.88 80.86 46.88 80.86 31.21 33.35 31.21 50.75 46.88"/><polygon class="cls-1" points="80.86 73.99 80.86 55.8 60.66 55.8 80.86 73.99"/><polygon class="cls-1" points="3.62 4.44 23.44 22.29 80.86 22.29 80.86 4.44 3.62 4.44"/></g></svg>