<svg id="Layer_1" data-name="Layer 1" xmlns="http://www.w3.org/2000/svg" viewBox="0 0 703.03 192.03"><title>Numago-logo</title><path d="M229.4,143.16a22.29,22.29,0,0,1-15.62-5.76,20.26,20.26,0,0,1-6.63-14.91V70.89h22.09v43.39a13.61,13.61,0,0,0,2.37,7.34c1.36,1.84,3.68,2.76,6.94,2.76a12,12,0,0,0,8.44-3.31,21.69,21.69,0,0,0,5.52-9.07,39.93,39.93,0,0,0,2-13V70.89h22.09v69h-20l-1.74-12.62.32,1.42a29.88,29.88,0,0,1-6,7.58,25.64,25.64,0,0,1-8.6,5.12A32.22,32.22,0,0,1,229.4,143.16Z"/><path d="M314.6,70.89,316.33,83,316,82.1a31.13,31.13,0,0,1,10.26-10.81,27.28,27.28,0,0,1,14.83-3.87,29.35,29.35,0,0,1,10,1.58,19.37,19.37,0,0,1,7.33,4.65,16.24,16.24,0,0,1,4.1,8l-.78.16a36.37,36.37,0,0,1,10.65-10.41,24,24,0,0,1,13-4q10.26,0,16.33,5.76A20.15,20.15,0,0,1,408,88.09v51.75H386.08V97.24a20.77,20.77,0,0,0-1.43-7.49c-.84-2-2.78-3-5.83-3.23a12.36,12.36,0,0,0-9.08,3.7,22.89,22.89,0,0,0-5.52,9.47,39.39,39.39,0,0,0-1.81,11.91v28.24H340.32V97.24a17.8,17.8,0,0,0-1.66-7.49c-1-2-3-3-6.07-3.23a11.66,11.66,0,0,0-8.76,3.7,23.67,23.67,0,0,0-5.36,9.39,37.86,37.86,0,0,0-1.82,11.68v28.55H294.56V70.89Z"/><path d="M455,141.74a38.74,38.74,0,0,1-17.43-3.87A28.71,28.71,0,0,1,425.2,126q-4.57-8.05-4.57-20.51,0-11.67,4.73-20.2a34.58,34.58,0,0,1,12.47-13.17,31.31,31.31,0,0,1,16.4-4.66q10.26,0,15.55,3.4a38.81,38.81,0,0,1,8.75,7.49L477.59,81l2.05-10.1h20.51v69H478.06v-15l1.74,4.73c-.22,0-.85.61-1.9,1.81a35.08,35.08,0,0,1-4.65,4.26,29.76,29.76,0,0,1-7.58,4.26A28.32,28.32,0,0,1,455,141.74Zm6.31-18a20.16,20.16,0,0,0,7.11-1.18A16,16,0,0,0,474,119.1a21.3,21.3,0,0,0,4.1-5.76V96.46a15.46,15.46,0,0,0-3.79-5.92,17.74,17.74,0,0,0-6-3.79,21.4,21.4,0,0,0-7.73-1.34,16.55,16.55,0,0,0-8.76,2.45,17.82,17.82,0,0,0-6.39,6.7,19.78,19.78,0,0,0-2.37,9.78,19.57,19.57,0,0,0,2.53,9.94,18.87,18.87,0,0,0,6.7,7A17.26,17.26,0,0,0,461.33,123.75Z"/><path d="M553.8,174.56a48.51,48.51,0,0,1-15.7-2.21A42.26,42.26,0,0,1,527.29,167q-4.42-3.15-7.89-6l12.94-15.15a61.83,61.83,0,0,0,8.44,6.39q4.82,3.08,12.7,3.08a25.64,25.64,0,0,0,9.7-1.82,17.37,17.37,0,0,0,7.26-5.28,13.53,13.53,0,0,0,2.76-8.68V124.38l.79,4q-2.52,5.35-9.15,9.38t-17.36,4a32.88,32.88,0,0,1-17.27-4.81,35.64,35.64,0,0,1-12.7-13.1A37.28,37.28,0,0,1,512.77,105a36.89,36.89,0,0,1,5.05-19.33,38.4,38.4,0,0,1,13.1-13.34,32.26,32.26,0,0,1,17-4.89A41.92,41.92,0,0,1,563.5,70a25.16,25.16,0,0,1,9.86,6.39l-.79,2,2.37-7.58h20.35v69a29.62,29.62,0,0,1-5.68,17.91,39.07,39.07,0,0,1-15.07,12.31A47.35,47.35,0,0,1,553.8,174.56ZM535,104.34a19.67,19.67,0,0,0,2.52,9.94,18.56,18.56,0,0,0,6.87,7,18.94,18.94,0,0,0,9.7,2.52,25.68,25.68,0,0,0,8.13-1.18,18.9,18.9,0,0,0,11-9.23V96.46a15.22,15.22,0,0,0-4.26-5.92,20.87,20.87,0,0,0-6.55-3.79,24.29,24.29,0,0,0-8.28-1.34,19.39,19.39,0,0,0-9.7,2.45,18.26,18.26,0,0,0-6.87,6.7A18.84,18.84,0,0,0,535,104.34Z"/><path d="M607.91,104.5a36.37,36.37,0,0,1,5-18.93,35.17,35.17,0,0,1,14-13.18,43.2,43.2,0,0,1,20.67-4.81q11.84,0,20.51,4.81a33.48,33.48,0,0,1,13.33,13.18A38.29,38.29,0,0,1,686,104.5a38.71,38.71,0,0,1-4.66,19A33.86,33.86,0,0,1,668,136.85q-8.68,4.89-20.83,4.89a45.11,45.11,0,0,1-20.27-4.42,33.08,33.08,0,0,1-14-12.78Q607.92,116.17,607.91,104.5Zm22.25.16a21.08,21.08,0,0,0,2.21,9.7,17.69,17.69,0,0,0,6,6.87,15,15,0,0,0,8.52,2.52,15.86,15.86,0,0,0,9-2.52,16.63,16.63,0,0,0,5.84-6.87,24.16,24.16,0,0,0,0-19.48,16.79,16.79,0,0,0-5.84-6.79,15.86,15.86,0,0,0-9-2.52,15,15,0,0,0-8.52,2.52,17.88,17.88,0,0,0-6,6.79A21,21,0,0,0,630.16,104.66Z"/><polygon points="103.67 72.49 82.53 72.49 103.8 92.04 103.67 72.49"/><polyline points="82.53 72.49 103.22 90.51 103.52 91.51"/><polygon points="103.49 45.69 53.38 45.69 74.07 64.71 103.62 64.71 103.49 45.69"/><polygon points="44.92 37.91 103.44 37.91 103.31 18.88 24.23 18.88 44.92 37.91"/><polygon points="103.87 102.8 80.92 81.7 80.92 139.84 104.12 139.84 103.87 102.8"/><polygon points="162.5 23.72 162.96 93.69 111.02 45.94 111.02 77.84 184.9 144.58 185.53 144.58 185.53 23.72 162.5 23.72"/></svg>