<svg id="Layer_2" data-name="Layer 2" xmlns="http://www.w3.org/2000/svg" viewBox="0 0 655.9 155.47"><defs><style>.cls-1{fill:#667eea;}</style></defs><title>numago-logo</title><g id="Numago"><g id="umago"><path d="M198.56,121a22.29,22.29,0,0,1-15.62-5.76,20.26,20.26,0,0,1-6.63-14.91V48.69H198.4V92.08a13.61,13.61,0,0,0,2.37,7.34c1.36,1.84,3.68,2.76,6.94,2.76a12,12,0,0,0,8.44-3.31,21.69,21.69,0,0,0,5.52-9.07,39.93,39.93,0,0,0,2-13V48.69h22.1v69h-20L224,105l.32,1.42a29.88,29.88,0,0,1-6,7.58,25.8,25.8,0,0,1-8.6,5.12A32.22,32.22,0,0,1,198.56,121Z"/><path d="M283.76,48.69l1.74,12.15-.32-.94a31.13,31.13,0,0,1,10.26-10.81,27.28,27.28,0,0,1,14.83-3.87,29.35,29.35,0,0,1,10,1.58,19.25,19.25,0,0,1,7.33,4.65,16.34,16.34,0,0,1,4.11,8l-.79.16a36.37,36.37,0,0,1,10.65-10.41,24,24,0,0,1,13-4q10.26,0,16.33,5.76a20.15,20.15,0,0,1,6.24,14.91v51.75H355.24V75a21,21,0,0,0-1.42-7.49c-.85-2-2.79-3-5.84-3.23A12.36,12.36,0,0,0,338.9,68a22.82,22.82,0,0,0-5.52,9.47,39.39,39.39,0,0,0-1.81,11.91v28.24H309.48V75a17.8,17.8,0,0,0-1.66-7.49c-1-2-3-3-6.07-3.23A11.66,11.66,0,0,0,293,68a23.61,23.61,0,0,0-5.36,9.39,38.16,38.16,0,0,0-1.82,11.68v28.55H263.72V48.69Z"/><path d="M424.18,119.54a38.74,38.74,0,0,1-17.43-3.87,28.71,28.71,0,0,1-12.39-11.91q-4.58-8.06-4.57-20.51,0-11.69,4.73-20.2A34.58,34.58,0,0,1,407,49.88a31.32,31.32,0,0,1,16.41-4.66q10.25,0,15.54,3.4a38.81,38.81,0,0,1,8.75,7.49l-.94,2.68,2.05-10.1h20.51v69H447.22v-15l1.74,4.73c-.22,0-.85.61-1.9,1.81a35.77,35.77,0,0,1-4.65,4.26,29.86,29.86,0,0,1-7.57,4.26A28.41,28.41,0,0,1,424.18,119.54Zm6.32-18a20.14,20.14,0,0,0,7.1-1.18,16,16,0,0,0,5.52-3.47,21.09,21.09,0,0,0,4.1-5.76V74.26a15.34,15.34,0,0,0-3.79-5.92,17.74,17.74,0,0,0-6-3.79,21.4,21.4,0,0,0-7.73-1.34A16.55,16.55,0,0,0,421,65.66a17.82,17.82,0,0,0-6.39,6.7,19.78,19.78,0,0,0-2.37,9.78,19.57,19.57,0,0,0,2.53,9.94,18.87,18.87,0,0,0,6.7,7A17.27,17.27,0,0,0,430.5,101.55Z"/><path d="M523,152.36a48.51,48.51,0,0,1-15.7-2.21,42.26,42.26,0,0,1-10.81-5.37q-4.43-3.15-7.89-6l12.94-15.15a61.83,61.83,0,0,0,8.44,6.39q4.81,3.08,12.7,3.08a25.64,25.64,0,0,0,9.7-1.82A17.37,17.37,0,0,0,539.6,126a13.53,13.53,0,0,0,2.76-8.68V102.18l.79,3.95q-2.52,5.36-9.15,9.38t-17.35,4a32.89,32.89,0,0,1-17.28-4.81,35.64,35.64,0,0,1-12.7-13.1,37.28,37.28,0,0,1-4.74-18.85A36.89,36.89,0,0,1,487,63.45a38.4,38.4,0,0,1,13.1-13.34,32.26,32.26,0,0,1,17-4.89,41.92,41.92,0,0,1,15.54,2.61,25.16,25.16,0,0,1,9.86,6.39l-.79,2.05,2.37-7.58h20.35v69a29.62,29.62,0,0,1-5.68,17.91,39.07,39.07,0,0,1-15.07,12.31A47.32,47.32,0,0,1,523,152.36ZM504.18,82.14a19.67,19.67,0,0,0,2.52,9.94,18.56,18.56,0,0,0,6.87,7,18.94,18.94,0,0,0,9.7,2.52,25.68,25.68,0,0,0,8.13-1.18,18.9,18.9,0,0,0,11-9.23V74.26a15.22,15.22,0,0,0-4.26-5.92,20.93,20.93,0,0,0-6.54-3.79,24.39,24.39,0,0,0-8.29-1.34,19.39,19.39,0,0,0-9.7,2.45,18.26,18.26,0,0,0-6.87,6.7A18.84,18.84,0,0,0,504.18,82.14Z"/><path d="M577.08,82.3a36.25,36.25,0,0,1,5-18.93,35.08,35.08,0,0,1,14-13.18,43.2,43.2,0,0,1,20.67-4.81q11.84,0,20.51,4.81a33.48,33.48,0,0,1,13.33,13.18,38.27,38.27,0,0,1,4.66,18.93,38.71,38.71,0,0,1-4.66,19,33.86,33.86,0,0,1-13.33,13.34q-8.69,4.88-20.83,4.89a45.11,45.11,0,0,1-20.27-4.42,33.08,33.08,0,0,1-14-12.78Q577.08,94,577.08,82.3Zm22.24.16a21.11,21.11,0,0,0,2.21,9.7,17.69,17.69,0,0,0,6,6.87,15,15,0,0,0,8.52,2.52A15.84,15.84,0,0,0,625,99a16.56,16.56,0,0,0,5.84-6.87,24.16,24.16,0,0,0,0-19.48A16.71,16.71,0,0,0,625,65.89a15.84,15.84,0,0,0-9-2.52,15,15,0,0,0-8.52,2.52,17.88,17.88,0,0,0-6,6.79A21,21,0,0,0,599.32,82.46Z"/></g><g id="N"><polygon points="132.16 1.8 132.12 71.49 86.16 30.14 86.16 60.67 154.69 122.38 154.69 1.8 132.16 1.8"/><polygon points="54.66 63.02 54.66 122.38 77.24 122.38 77.24 83.35 54.66 63.02"/><polygon class="cls-1" points="47.13 44.23 77.24 44.23 77.24 28.56 29.72 28.56 47.13 44.23"/><polygon class="cls-1" points="77.24 71.35 77.24 53.15 57.03 53.15 77.24 71.35"/><polygon class="cls-1" points="0 1.8 19.82 19.64 77.24 19.64 77.24 1.8 0 1.8"/></g></g></svg>