<svg xmlns="http://www.w3.org/2000/svg" viewBox="0 0 1000 1000">
  <g data-name="WhatsApp Logo">
    <path d="M845.09 155.4c-91.53-91.64-213.26-142.13-343-142.18C234.9 13.22 17.41 230.7 17.3 498A484 484 0 0082 740.39L13.24 991.63l257-67.42a484.52 484.52 0 00231.69 59h.2c267.2 0 484.72-217.5 484.82-484.82C987 368.85 936.63 247 845.09 155.4zm-343 745.94H502a402.45 402.45 0 01-205.1-56.17l-14.71-8.73-152.52 40 40.71-148.7-9.58-15.25A402 402 0 0199.16 498C99.25 275.86 280 95.1 502.3 95.1c107.63 0 208.81 42 284.89 118.18s118 177.41 117.91 285.09c-.1 222.19-180.86 402.97-402.96 402.97zm221-301.81c-12.11-6.06-71.67-35.36-82.77-39.41s-19.18-6.06-27.26 6.06-31.29 39.42-38.36 47.51-14.13 9.09-26.24 3-51.15-18.86-97.42-60.13c-36-32.12-60.33-71.79-67.39-83.92S383 454 389 448c5.45-5.43 12.11-14.15 18.17-21.23s8.07-12.13 12.11-20.21 2-15.16-1-21.22-27.25-65.69-37.35-90c-9.83-23.62-19.82-20.42-27.25-20.8-7.06-.35-15.15-.42-23.22-.42s-21.2 3-32.31 15.16-42.4 41.43-42.4 101.06 43.41 117.23 49.47 125.32 85.42 130.44 207 182.91a692.65 692.65 0 0069.06 25.52c29 9.23 55.42 7.92 76.3 4.8 23.27-3.47 71.67-29.3 81.77-57.6s10.09-52.55 7.06-57.6-11.12-8.09-23.24-14.16z" fill-rule="evenodd" data-name="WA Logo"/>
  </g>
</svg>
